<svg width="143" height="43" viewBox="0 0 143 43" fill="none" xmlns="http://www.w3.org/2000/svg">
    <path d="M0 0.000366211V15.7134L9.39604 8.48983L0 0.000366211Z" fill="#131118"/>
    <path d="M0 42.2408L9.39604 33.7533L0 26.5352V42.2408Z" fill="#131118"/>
    <path d="M17.6191 18.968L41.2598 0H27.4806L0 21.1251L17.6191 18.968Z" fill="#131118"/>
    <path d="M0 21.125L27.4806 42.2419H41.2598L17.6191 23.2704L0 21.125Z" fill="#131118"/>
    <path d="M48.6411 1.82213H53.2872V40.0841H48.6411V1.82213ZM68.3187 1.82213H74.058L57.496 19.7506L74.8779 40.0841H69.1386L51.8661 19.8599L68.3187 1.82213Z" fill="#131118"/>
    <path d="M83.647 14.9405V40.0841H79.2742V14.9405H83.647ZM91.2447 19.7506C90.6617 19.3133 90.1333 19.0036 89.6596 18.8214C89.1858 18.6027 88.5846 18.4934 87.8558 18.4934C86.7626 18.4934 85.9062 18.7667 85.2868 19.3133C84.6673 19.8599 84.23 20.6069 83.9749 21.5544C83.7563 22.5018 83.647 23.5768 83.647 24.7793H81.6792C81.6792 22.7751 82.0254 21.0078 82.7178 19.4773C83.4465 17.9104 84.3758 16.6714 85.5054 15.7604C86.635 14.8494 87.7829 14.3939 88.949 14.3939C89.86 14.3939 90.6981 14.5215 91.4633 14.7765C92.265 14.9952 92.9938 15.4507 93.6497 16.143L91.2447 19.7506Z" fill="#131118"/>
    <path d="M98.0101 4.55512C98.0101 3.71701 98.3017 3.00643 98.8847 2.42339C99.5042 1.84035 100.215 1.54883 101.016 1.54883C101.855 1.54883 102.565 1.84035 103.148 2.42339C103.731 3.00643 104.023 3.71701 104.023 4.55512C104.023 5.3568 103.731 6.06738 103.148 6.68686C102.565 7.2699 101.855 7.56142 101.016 7.56142C100.215 7.56142 99.5042 7.2699 98.8847 6.68686C98.3017 6.06738 98.0101 5.3568 98.0101 4.55512ZM98.83 14.9405H103.203V40.0841H98.83V14.9405Z" fill="#131118"/>
    <path d="M113.247 32.377C113.758 33.1423 114.341 33.8529 114.997 34.5088C115.652 35.1647 116.4 35.6931 117.238 36.0939C118.112 36.4583 119.06 36.6405 120.08 36.6405C121.319 36.6405 122.285 36.3672 122.977 35.8206C123.706 35.2376 124.07 34.4541 124.07 33.4702C124.07 32.5957 123.779 31.8669 123.196 31.2838C122.649 30.6644 121.938 30.1542 121.064 29.7534C120.189 29.3161 119.26 28.9152 118.276 28.5508C117.183 28.1136 116.072 27.6034 114.942 27.0204C113.849 26.4009 112.919 25.6174 112.154 24.67C111.425 23.6861 111.061 22.4654 111.061 21.0078C111.061 19.5137 111.444 18.2748 112.209 17.2909C113.011 16.307 114.031 15.5782 115.27 15.1045C116.545 14.6308 117.857 14.3939 119.205 14.3939C120.554 14.3939 121.811 14.6126 122.977 15.0498C124.179 15.4871 125.236 16.0702 126.147 16.799C127.058 17.5278 127.769 18.3659 128.279 19.3133L124.781 21.5544C124.088 20.6069 123.214 19.8235 122.157 19.204C121.137 18.5845 119.971 18.2748 118.659 18.2748C117.748 18.2748 116.964 18.4752 116.308 18.876C115.652 19.2769 115.325 19.8964 115.325 20.7345C115.325 21.3904 115.58 21.9734 116.09 22.4836C116.6 22.9937 117.256 23.4492 118.058 23.8501C118.859 24.2509 119.697 24.6335 120.572 24.9979C122.029 25.581 123.36 26.2187 124.562 26.911C125.765 27.567 126.712 28.3686 127.404 29.3161C128.133 30.2635 128.498 31.4843 128.498 32.9783C128.498 35.1647 127.696 36.9867 126.093 38.4443C124.526 39.9019 122.449 40.6307 119.861 40.6307C118.185 40.6307 116.673 40.3392 115.325 39.7561C113.976 39.1367 112.828 38.3532 111.881 37.4058C110.97 36.4583 110.278 35.4927 109.804 34.5088L113.247 32.377Z" fill="#131118"/>
    <path d="M130.428 14.9405H143V19.04H130.428V14.9405ZM134.528 6.19492H138.9V40.0841H134.528V6.19492Z" fill="#131118"/>
    </svg>
    